<svg xmlns="http://www.w3.org/2000/svg" viewBox="0 0 800 420" font-family="Inter, Segoe UI, Helvetica, Arial, sans-serif">
  <defs>
    <pattern id="daemmb" width="12" height="12" patternUnits="userSpaceOnUse" patternTransform="rotate(45)">
      <rect width="12" height="12" fill="#adc178"/>
      <line x1="0" y1="0" x2="0" y2="12" stroke="#6c584c" stroke-width="1.2" opacity="0.45"/>
    </pattern>
    <pattern id="ziegelb" width="26" height="26" patternUnits="userSpaceOnUse">
      <rect width="26" height="26" fill="#a98467"/>
      <line x1="0" y1="13" x2="26" y2="13" stroke="#6c584c" stroke-width="1" opacity="0.5"/>
      <line x1="13" y1="0" x2="13" y2="13" stroke="#6c584c" stroke-width="1" opacity="0.5"/>
      <line x1="0" y1="13" x2="0" y2="26" stroke="#6c584c" stroke-width="1" opacity="0.5"/>
    </pattern>
  </defs>

  <rect width="800" height="420" fill="#f0ead2"/>

  <rect x="40" y="80" width="90" height="250" fill="#ffffff" opacity="0.35"/>
  <rect x="676" y="80" width="84" height="250" fill="#ffffff" opacity="0.35"/>
  <text x="85" y="66" text-anchor="middle" font-size="15" fill="#414833">innen</text>
  <text x="718" y="66" text-anchor="middle" font-size="15" fill="#414833">außen</text>

  <rect x="130" y="80" width="18" height="250" fill="#dde5b6" stroke="#414833" stroke-width="1.5"/>
  <rect x="148" y="80" width="210" height="250" fill="url(#ziegelb)" stroke="#414833" stroke-width="1.5"/>
  <rect x="358" y="80" width="168" height="250" fill="url(#daemmb)" stroke="#414833" stroke-width="1.5"/>
  <rect x="526" y="80" width="12" height="250" fill="#ffffff" stroke="#414833" stroke-width="1.5"/>
  <rect x="538" y="80" width="138" height="250" fill="#6c584c" stroke="#414833" stroke-width="1.5"/>
  <line x1="538" y1="80" x2="538" y2="330" stroke="#414833" stroke-width="1.5"/>

  <line x1="352" y1="150" x2="560" y2="150" stroke="#414833" stroke-width="2"/>
  <line x1="352" y1="270" x2="560" y2="270" stroke="#414833" stroke-width="2"/>

  <g stroke="#414833" stroke-width="1" fill="#414833" font-size="13">
    <line x1="130" y1="345" x2="130" y2="372"/>
    <line x1="148" y1="345" x2="148" y2="372"/>
    <line x1="358" y1="345" x2="358" y2="372"/>
    <line x1="526" y1="345" x2="526" y2="372"/>
    <line x1="538" y1="345" x2="538" y2="372"/>
    <line x1="676" y1="345" x2="676" y2="372"/>
    <line x1="130" y1="362" x2="676" y2="362"/>
    <text x="139" y="392" text-anchor="middle">15</text>
    <text x="253" y="392" text-anchor="middle">175</text>
    <text x="442" y="392" text-anchor="middle">140</text>
    <text x="532" y="392" text-anchor="middle">10</text>
    <text x="607" y="392" text-anchor="middle">115</text>
    <text x="700" y="392" text-anchor="start">[mm]</text>
  </g>
</svg>
